<svg xmlns="http://www.w3.org/2000/svg" viewBox="0 0 800 340">
<defs>
<linearGradient id="g" x1="0" y1="0" x2="0" y2="1">
<stop offset="0" stop-color="#0E5348"/><stop offset="1" stop-color="#082F29"/>
</linearGradient>
<filter id="n"><feTurbulence type="fractalNoise" baseFrequency=".8" numOctaves="2" seed="17" stitchTiles="stitch"/><feColorMatrix type="matrix" values="0 0 0 0 1  0 0 0 0 1  0 0 0 0 1  0 0 0 .04 0"/></filter>
</defs>
<rect width="800" height="340" fill="url(#g)"/>
<path d="M640 340 L640 160 A110 110 0 0 1 860 160 L860 340 Z" fill="none" stroke="#FAF8F3" stroke-width="1.5" opacity=".16"/>

<text x="54" y="262" font-family="Georgia,'Times New Roman',serif" font-size="230" fill="#FAF8F3">2<tspan font-family="Arial" font-size="170">&#215;</tspan></text>
<path d="M560 92 c16 24 28 40 28 56 a28 28 0 0 1 -56 0 c0 -10 5 -20 12 -29 c2 9 8 14 14 16 c-5 -14 -2 -28 2 -43z" fill="#E8A13D"/>
<text x="390" y="246" font-family="Figtree,Arial,sans-serif" font-size="17" font-weight="700" letter-spacing="4.5" fill="#E8A13D" text-anchor="start">ANTACIDS A WEEK?</text>
<text x="390" y="274" font-family="Figtree,Arial,sans-serif" font-size="17" font-weight="700" letter-spacing="4.5" fill="#E8A13D" text-anchor="start">TIME FOR A REAL LOOK</text>
<rect width="800" height="340" filter="url(#n)"/>
</svg>