<svg xmlns="http://www.w3.org/2000/svg" viewBox="0 0 800 340">
<defs>
<linearGradient id="bg" x1="0" y1="0" x2="1" y2="1">
<stop offset="0" stop-color="#E3EFEB"/><stop offset="1" stop-color="#9CC4B8" stop-opacity=".55"/>
</linearGradient>
<linearGradient id="mn" x1="0" y1="0" x2="1" y2="1">
<stop offset="0" stop-color="#0E5348"/><stop offset="1" stop-color="#0E5348" stop-opacity=".72"/>
</linearGradient>
<filter id="gr"><feTurbulence type="fractalNoise" baseFrequency=".9" numOctaves="2" seed="9" stitchTiles="stitch"/><feColorMatrix type="matrix" values="0 0 0 0 0  0 0 0 0 0  0 0 0 0 0  0 0 0 .05 0"/></filter>
</defs>
<rect width="800" height="340" fill="url(#bg)"/>
<circle cx="770" cy="-30" r="190" fill="#0E5348" opacity=".10"/>
<circle cx="30" cy="360" r="150" fill="#0E5348" opacity=".10"/>
<circle cx="640" cy="290" r="70" fill="none" stroke="#0E5348" stroke-width="1.5" stroke-dasharray="3 7" opacity=".5"/>

<path d="M300 -20 c0 78 14 106 60 130 c66 36 108 78 108 144 a115 115 0 0 1 -214 60" fill="none" stroke="url(#mn)" stroke-width="42" stroke-linecap="round"/>
<path d="M372 168 c22 32 38 51 38 73 a38 38 0 0 1 -76 0 c0 -13 6 -26 16 -38 c3 12 10 19 19 22 c-7 -19 -3 -38 3 -57z" fill="#E8A13D"/>
<g fill="none" stroke="#0E5348" stroke-width="3" opacity=".55">
<circle cx="620" cy="90" r="16"/><circle cx="662" cy="140" r="10"/><circle cx="600" cy="160" r="7"/></g>
<rect width="800" height="340" filter="url(#gr)"/>
</svg>