<svg xmlns="http://www.w3.org/2000/svg" viewBox="0 0 800 260">
<defs>
<linearGradient id="g" x1="0" y1="0" x2="0" y2="1">
<stop offset="0" stop-color="#0E5348"/><stop offset="1" stop-color="#082F29"/>
</linearGradient>
<filter id="n"><feTurbulence type="fractalNoise" baseFrequency=".8" numOctaves="2" seed="27" stitchTiles="stitch"/><feColorMatrix type="matrix" values="0 0 0 0 1  0 0 0 0 1  0 0 0 0 1  0 0 0 .035 0"/></filter>
</defs>
<rect width="800" height="260" fill="url(#g)"/>
<path d="M672 260 L672 120 A88 88 0 0 1 848 120 L848 260 Z" fill="none" stroke="#FAF8F3" stroke-width="1.2" opacity=".14"/>
<text x="64" y="168" font-family="Georgia,'Times New Roman',serif" font-size="112" fill="#FAF8F3">2<tspan font-family="Arial" font-size="84">&#215;</tspan><tspan font-size="56" font-style="italic"> a week</tspan></text><text x="64" y="214" font-family="Georgia,'Times New Roman',serif" font-size="34" font-style="italic" fill="#E8A13D">antacids that often? time for a real look</text><line x1="64" y1="186" x2="350" y2="186" stroke="#E8A13D" stroke-width="1.5" opacity="0.9"/><path d="M706 82 c10 15 18 25 18 35 a18 18 0 0 1 -36 0 c0 -6 3 -12 8 -18 c1 5 5 8 9 10 c-3 -9 -2 -18 1 -27z" fill="#E8A13D"/>
<rect width="800" height="260" filter="url(#n)"/>
</svg>