<svg xmlns="http://www.w3.org/2000/svg" viewBox="0 0 800 340">
<defs>
<linearGradient id="bg" x1="0" y1="0" x2="1" y2="1">
<stop offset="0" stop-color="#FBF0DC"/><stop offset="1" stop-color="#F0CE96" stop-opacity=".55"/>
</linearGradient>
<linearGradient id="mn" x1="0" y1="0" x2="1" y2="1">
<stop offset="0" stop-color="#C97F1E"/><stop offset="1" stop-color="#C97F1E" stop-opacity=".72"/>
</linearGradient>
<filter id="gr"><feTurbulence type="fractalNoise" baseFrequency=".9" numOctaves="2" seed="4" stitchTiles="stitch"/><feColorMatrix type="matrix" values="0 0 0 0 0  0 0 0 0 0  0 0 0 0 0  0 0 0 .05 0"/></filter>
</defs>
<rect width="800" height="340" fill="url(#bg)"/>
<circle cx="770" cy="-30" r="190" fill="#C97F1E" opacity=".10"/>
<circle cx="30" cy="360" r="150" fill="#C97F1E" opacity=".10"/>
<circle cx="640" cy="290" r="70" fill="none" stroke="#C97F1E" stroke-width="1.5" stroke-dasharray="3 7" opacity=".5"/>

<g transform="rotate(18 400 170)">
<rect x="372" y="-40" width="56" height="330" rx="28" fill="#FAF8F3" stroke="#17211D" stroke-width="7"/>
<circle cx="400" cy="300" r="52" fill="url(#mn)" stroke="#17211D" stroke-width="7"/>
<rect x="388" y="90" width="24" height="200" rx="12" fill="url(#mn)"/>
<g stroke="#17211D" stroke-width="6" stroke-linecap="round"><path d="M446 40h30M446 90h30M446 140h30"/></g>
</g>
<path d="M620 40 a75 75 0 1 0 58 124 a62 62 0 0 1 -58 -124z" fill="#0E5348"/>
<g fill="#E8A13D"><circle cx="130" cy="80" r="9"/><circle cx="170" cy="130" r="6"/><circle cx="105" cy="150" r="5"/></g>
<rect width="800" height="340" filter="url(#gr)"/>
</svg>