<svg xmlns="http://www.w3.org/2000/svg" viewBox="0 0 800 480">
<rect width="800" height="480" fill="#FBF0DC"/>
<circle cx="712" cy="60" r="130" fill="#C97F1E" opacity=".07"/>
<circle cx="70" cy="430" r="90" fill="#C97F1E" opacity=".07"/>
<path d="M250 480 L250 210 A150 150 0 0 1 550 210 L550 480 Z" fill="#FAF8F3"/>
<path d="M262 480 L262 214 A138 138 0 0 1 538 214 L538 480 Z" fill="none" stroke="#E8A13D" stroke-width="2" opacity=".8"/>
<g>
<rect x="382" y="150" width="36" height="180" rx="18" fill="#FAF8F3" stroke="#17211D" stroke-width="6"/>
<circle cx="400" cy="345" r="34" fill="#C97F1E" stroke="#17211D" stroke-width="6"/>
<rect x="392" y="220" width="16" height="100" rx="8" fill="#C97F1E"/>
<g stroke="#17211D" stroke-width="5" stroke-linecap="round"><path d="M430 180h22M430 210h22M430 240h22"/></g>
<path d="M310 170 a40 40 0 1 0 30 66 a34 34 0 0 1 -30 -66z" fill="#0E5348"/>
<g fill="#E8A13D"><circle cx="500" cy="160" r="6"/><circle cx="522" cy="196" r="4"/><circle cx="492" cy="216" r="4"/></g></g>
<g fill="#C97F1E" opacity=".5"><circle cx="120" cy="120" r="4"/><circle cx="146" cy="108" r="3"/><circle cx="106" cy="148" r="3"/></g>
<g fill="#C97F1E" opacity=".5"><circle cx="684" cy="368" r="4"/><circle cx="660" cy="384" r="3"/><circle cx="700" cy="396" r="3"/></g>
</svg>