<svg xmlns="http://www.w3.org/2000/svg" viewBox="0 0 800 340">
<defs>
<linearGradient id="bg" x1="0" y1="0" x2="1" y2="1">
<stop offset="0" stop-color="#F9ECE9"/><stop offset="1" stop-color="#E8B7B1" stop-opacity=".55"/>
</linearGradient>
<linearGradient id="mn" x1="0" y1="0" x2="1" y2="1">
<stop offset="0" stop-color="#B4544C"/><stop offset="1" stop-color="#B4544C" stop-opacity=".72"/>
</linearGradient>
<filter id="gr"><feTurbulence type="fractalNoise" baseFrequency=".9" numOctaves="2" seed="3" stitchTiles="stitch"/><feColorMatrix type="matrix" values="0 0 0 0 0  0 0 0 0 0  0 0 0 0 0  0 0 0 .05 0"/></filter>
</defs>
<rect width="800" height="340" fill="url(#bg)"/>
<circle cx="770" cy="-30" r="190" fill="#B4544C" opacity=".10"/>
<circle cx="30" cy="360" r="150" fill="#B4544C" opacity=".10"/>
<circle cx="640" cy="290" r="70" fill="none" stroke="#B4544C" stroke-width="1.5" stroke-dasharray="3 7" opacity=".5"/>

<g transform="rotate(-9 260 200)">
<path d="M260 320 C160 255 110 200 110 140 a80 80 0 0 1 150-40 a80 80 0 0 1 150 40 c0 60-50 115-150 180z" fill="url(#mn)"/>
</g>
<path d="M-10 210 h190 l32-62 44 118 40-80 24 24 h480" fill="none" stroke="#FAF8F3" stroke-width="11" stroke-linecap="round" stroke-linejoin="round" opacity=".95"/>
<path d="M-10 210 h190 l32-62 44 118 40-80 24 24 h480" fill="none" stroke="#E8A13D" stroke-width="4" stroke-linecap="round" stroke-linejoin="round"/>
<path d="M560 60 a70 70 0 0 1 140 0" fill="none" stroke="#E8A13D" stroke-width="8" stroke-linecap="round"/>
<circle cx="630" cy="58" r="20" fill="#E8A13D"/>
<rect width="800" height="340" filter="url(#gr)"/>
</svg>