<svg xmlns="http://www.w3.org/2000/svg" viewBox="0 0 800 340">
<defs>
<linearGradient id="bg" x1="0" y1="0" x2="1" y2="1">
<stop offset="0" stop-color="#E6F1F5"/><stop offset="1" stop-color="#9CC6D6" stop-opacity=".55"/>
</linearGradient>
<linearGradient id="mn" x1="0" y1="0" x2="1" y2="1">
<stop offset="0" stop-color="#1F6E8C"/><stop offset="1" stop-color="#1F6E8C" stop-opacity=".72"/>
</linearGradient>
<filter id="gr"><feTurbulence type="fractalNoise" baseFrequency=".9" numOctaves="2" seed="6" stitchTiles="stitch"/><feColorMatrix type="matrix" values="0 0 0 0 0  0 0 0 0 0  0 0 0 0 0  0 0 0 .05 0"/></filter>
</defs>
<rect width="800" height="340" fill="url(#bg)"/>
<circle cx="770" cy="-30" r="190" fill="#1F6E8C" opacity=".10"/>
<circle cx="30" cy="360" r="150" fill="#1F6E8C" opacity=".10"/>
<circle cx="640" cy="290" r="70" fill="none" stroke="#1F6E8C" stroke-width="1.5" stroke-dasharray="3 7" opacity=".5"/>

<g transform="rotate(-8 420 170)">
<path d="M360 40 c-70 0 -110 56 -110 124 c0 70 44 120 100 120 c34 0 50 -20 50 -46 c0 -24 -16 -34 -16 -57 c0 -27 20 -37 20 -67 c0 -44 -17 -74 -44 -74z" fill="url(#mn)"/>
<path d="M520 40 c70 0 110 56 110 124 c0 70 -44 120 -100 120 c-34 0 -50 -20 -50 -46 c0 -24 16 -34 16 -57 c0 -27 -20 -37 -20 -67 c0 -44 17 -74 44 -74z" fill="url(#mn)" opacity=".55"/>
</g>
<g fill="#E8A13D">
<path d="M160 150 c14 20 23 32 23 45 a23 23 0 0 1 -46 0 c0 -13 9 -25 23 -45z"/>
<path d="M120 240 c10 14 16 23 16 32 a16 16 0 0 1 -32 0 c0 -9 6 -18 16 -32z" opacity=".8"/>
</g>
<rect width="800" height="340" filter="url(#gr)"/>
</svg>