<svg xmlns="http://www.w3.org/2000/svg" viewBox="0 0 800 480">
<rect width="800" height="480" fill="#E6F1F5"/>
<circle cx="712" cy="60" r="130" fill="#1F6E8C" opacity=".07"/>
<circle cx="70" cy="430" r="90" fill="#1F6E8C" opacity=".07"/>
<path d="M250 480 L250 210 A150 150 0 0 1 550 210 L550 480 Z" fill="#FAF8F3"/>
<path d="M262 480 L262 214 A138 138 0 0 1 538 214 L538 480 Z" fill="none" stroke="#E8A13D" stroke-width="2" opacity=".8"/>
<g>
<path d="M350 200 c-42 0 -66 34 -66 74 c0 42 26 72 60 72 c20 0 30 -12 30 -28 c0 -14 -10 -20 -10 -34 c0 -16 12 -22 12 -40 c0 -26 -10 -44 -26 -44z" fill="#1F6E8C"/>
<path d="M450 200 c42 0 66 34 66 74 c0 42 -26 72 -60 72 c-20 0 -30 -12 -30 -28 c0 -14 10 -20 10 -34 c0 -16 -12 -22 -12 -40 c0 -26 10 -44 26 -44z" fill="#1F6E8C" opacity=".6"/>
<path d="M400 300 c16 22 26 36 26 50 a26 26 0 0 1 -52 0 c0 -14 10 -28 26 -50z" fill="#E8A13D"/></g>
<g fill="#1F6E8C" opacity=".5"><circle cx="120" cy="120" r="4"/><circle cx="146" cy="108" r="3"/><circle cx="106" cy="148" r="3"/></g>
<g fill="#1F6E8C" opacity=".5"><circle cx="684" cy="368" r="4"/><circle cx="660" cy="384" r="3"/><circle cx="700" cy="396" r="3"/></g>
</svg>