<svg xmlns="http://www.w3.org/2000/svg" viewBox="0 0 800 480">
<rect width="800" height="480" fill="#E9F1F7"/>
<circle cx="712" cy="60" r="130" fill="#41799F" opacity=".07"/>
<circle cx="70" cy="430" r="90" fill="#41799F" opacity=".07"/>
<path d="M250 480 L250 210 A150 150 0 0 1 550 210 L550 480 Z" fill="#FAF8F3"/>
<path d="M262 480 L262 214 A138 138 0 0 1 538 214 L538 480 Z" fill="none" stroke="#E8A13D" stroke-width="2" opacity=".8"/>
<g>
<path d="M370 150 l40 0 8 110 -12 12 12 12 -14 116 -40 0 12 -118 -14 -14 14 -14z" fill="#41799F" opacity=".25"/>
<circle cx="398" cy="272" r="52" fill="none" stroke="#41799F" stroke-width="8"/>
<circle cx="398" cy="272" r="26" fill="#41799F"/>
<g stroke="#E8A13D" stroke-width="6" stroke-linecap="round"><path d="M338 236 l-22 -14M338 308 l-22 14M458 236 l22 -14M458 308 l22 14"/></g></g>
<g fill="#41799F" opacity=".5"><circle cx="120" cy="120" r="4"/><circle cx="146" cy="108" r="3"/><circle cx="106" cy="148" r="3"/></g>
<g fill="#41799F" opacity=".5"><circle cx="684" cy="368" r="4"/><circle cx="660" cy="384" r="3"/><circle cx="700" cy="396" r="3"/></g>
</svg>