<svg xmlns="http://www.w3.org/2000/svg" viewBox="0 0 800 340">
<defs>
<linearGradient id="bg" x1="0" y1="0" x2="1" y2="1">
<stop offset="0" stop-color="#E9F1F7"/><stop offset="1" stop-color="#AECBDE" stop-opacity=".55"/>
</linearGradient>
<linearGradient id="mn" x1="0" y1="0" x2="1" y2="1">
<stop offset="0" stop-color="#41799F"/><stop offset="1" stop-color="#41799F" stop-opacity=".72"/>
</linearGradient>
<filter id="gr"><feTurbulence type="fractalNoise" baseFrequency=".9" numOctaves="2" seed="7" stitchTiles="stitch"/><feColorMatrix type="matrix" values="0 0 0 0 0  0 0 0 0 0  0 0 0 0 0  0 0 0 .05 0"/></filter>
</defs>
<rect width="800" height="340" fill="url(#bg)"/>
<circle cx="770" cy="-30" r="190" fill="#41799F" opacity=".10"/>
<circle cx="30" cy="360" r="150" fill="#41799F" opacity=".10"/>
<circle cx="640" cy="290" r="70" fill="none" stroke="#41799F" stroke-width="1.5" stroke-dasharray="3 7" opacity=".5"/>

<g transform="rotate(22 400 170)">
<path d="M368 -60 l64 0 12 170 -18 18 18 18 -20 214 -64 0 18 -216 -20 -20 20 -20z" fill="url(#mn)" opacity=".28"/>
</g>
<circle cx="415" cy="180" r="86" fill="none" stroke="url(#mn)" stroke-width="11"/>
<circle cx="415" cy="180" r="42" fill="url(#mn)"/>
<circle cx="415" cy="180" r="16" fill="#FAF8F3"/>
<g stroke="#E8A13D" stroke-width="8" stroke-linecap="round">
<path d="M300 120 l-34 -22M300 240 l-34 22M530 120 l34 -22M530 240 l34 22"/></g>
<path d="M580 300 a180 180 0 0 0 60 -220" fill="none" stroke="#41799F" stroke-width="2" stroke-dasharray="4 8" opacity=".6"/>
<rect width="800" height="340" filter="url(#gr)"/>
</svg>