<svg xmlns="http://www.w3.org/2000/svg" viewBox="0 0 800 340">
<defs>
<linearGradient id="bg" x1="0" y1="0" x2="1" y2="1">
<stop offset="0" stop-color="#FBF0DC"/><stop offset="1" stop-color="#F0CE96" stop-opacity=".55"/>
</linearGradient>
<linearGradient id="mn" x1="0" y1="0" x2="1" y2="1">
<stop offset="0" stop-color="#C97F1E"/><stop offset="1" stop-color="#C97F1E" stop-opacity=".72"/>
</linearGradient>
<filter id="gr"><feTurbulence type="fractalNoise" baseFrequency=".9" numOctaves="2" seed="8" stitchTiles="stitch"/><feColorMatrix type="matrix" values="0 0 0 0 0  0 0 0 0 0  0 0 0 0 0  0 0 0 .05 0"/></filter>
</defs>
<rect width="800" height="340" fill="url(#bg)"/>
<circle cx="770" cy="-30" r="190" fill="#C97F1E" opacity=".10"/>
<circle cx="30" cy="360" r="150" fill="#C97F1E" opacity=".10"/>
<circle cx="640" cy="290" r="70" fill="none" stroke="#C97F1E" stroke-width="1.5" stroke-dasharray="3 7" opacity=".5"/>

<g transform="translate(360 -35) scale(1.22)">
<path d="M120 40 a38 38 0 1 1 38 38 c-5 32 8 42 28 55 c38 22 55 57 55 95 c0 50 -38 82 -85 82 c-50 0 -82 -32 -82 -77 c0 -38 20 -55 30 -82 c10 -25 8 -63 16 -111z" fill="url(#mn)"/>
<circle cx="176" cy="222" r="40" fill="#FAF8F3" opacity=".9"/>
<circle cx="176" cy="222" r="15" fill="#0E5348"/>
<circle cx="176" cy="222" r="58" fill="none" stroke="#E8A13D" stroke-width="3" stroke-dasharray="2 8"/>
</g>
<path d="M130 60 a55 55 0 1 0 42 92 a46 46 0 0 1 -42 -92z" fill="#0E5348" opacity=".65"/>
<g fill="#E8A13D"><circle cx="220" cy="250" r="8"/><circle cx="185" cy="290" r="5"/></g>
<rect width="800" height="340" filter="url(#gr)"/>
</svg>