<svg xmlns="http://www.w3.org/2000/svg" viewBox="0 0 800 340">
<defs>
<linearGradient id="bg" x1="0" y1="0" x2="1" y2="1">
<stop offset="0" stop-color="#E3EFEB"/><stop offset="1" stop-color="#9CC4B8" stop-opacity=".55"/>
</linearGradient>
<linearGradient id="mn" x1="0" y1="0" x2="1" y2="1">
<stop offset="0" stop-color="#0E5348"/><stop offset="1" stop-color="#0E5348" stop-opacity=".72"/>
</linearGradient>
<filter id="gr"><feTurbulence type="fractalNoise" baseFrequency=".9" numOctaves="2" seed="10" stitchTiles="stitch"/><feColorMatrix type="matrix" values="0 0 0 0 0  0 0 0 0 0  0 0 0 0 0  0 0 0 .05 0"/></filter>
</defs>
<rect width="800" height="340" fill="url(#bg)"/>
<circle cx="770" cy="-30" r="190" fill="#0E5348" opacity=".10"/>
<circle cx="30" cy="360" r="150" fill="#0E5348" opacity=".10"/>
<circle cx="640" cy="290" r="70" fill="none" stroke="#0E5348" stroke-width="1.5" stroke-dasharray="3 7" opacity=".5"/>

<path d="M-20 300 q200 -90 420 -30 q220 60 420 -10 l0 120 -840 0z" fill="url(#mn)" opacity=".3"/>
<circle cx="260" cy="228" r="46" fill="url(#mn)"/>
<path d="M300 252 q110 -44 210 -10 q34 12 18 40 q-120 -30 -222 6z" fill="url(#mn)"/>
<g fill="#E8A13D" font-family="Georgia,serif" font-weight="bold">
<text x="520" y="150" font-size="120" opacity=".95">Z</text>
<text x="620" y="95" font-size="76" opacity=".8">z</text>
<text x="688" y="55" font-size="48" opacity=".65">z</text></g>
<path d="M180 140 q14 -16 28 0 q14 16 28 0 q14 -16 28 0" fill="none" stroke="#0E5348" stroke-width="6" stroke-linecap="round"/>
<rect width="800" height="340" filter="url(#gr)"/>
</svg>