<svg xmlns="http://www.w3.org/2000/svg" viewBox="0 0 800 480">
<rect width="800" height="480" fill="#E3EFEB"/>
<circle cx="712" cy="60" r="130" fill="#0E5348" opacity=".07"/>
<circle cx="70" cy="430" r="90" fill="#0E5348" opacity=".07"/>
<path d="M250 480 L250 210 A150 150 0 0 1 550 210 L550 480 Z" fill="#FAF8F3"/>
<path d="M262 480 L262 214 A138 138 0 0 1 538 214 L538 480 Z" fill="none" stroke="#E8A13D" stroke-width="2" opacity=".8"/>
<g>
<path d="M300 330 q100 -40 200 0 l0 40 q-100 -30 -200 0z" fill="#0E5348" opacity=".25"/>
<circle cx="340" cy="300" r="30" fill="#0E5348"/>
<path d="M368 316 q60 -26 120 -6 q22 8 12 26 q-70 -18 -128 4z" fill="#0E5348"/>
<g fill="#E8A13D" font-family="Georgia,serif" font-weight="bold">
<text x="420" y="215" font-size="44">Z</text><text x="458" y="185" font-size="32">z</text><text x="486" y="163" font-size="24">z</text></g>
<path d="M330 240 q10 -12 20 0 q10 12 20 0 q10 -12 20 0" fill="none" stroke="#0E5348" stroke-width="5" stroke-linecap="round"/></g>
<g fill="#0E5348" opacity=".5"><circle cx="120" cy="120" r="4"/><circle cx="146" cy="108" r="3"/><circle cx="106" cy="148" r="3"/></g>
<g fill="#0E5348" opacity=".5"><circle cx="684" cy="368" r="4"/><circle cx="660" cy="384" r="3"/><circle cx="700" cy="396" r="3"/></g>
</svg>