<svg xmlns="http://www.w3.org/2000/svg" viewBox="0 0 800 340">
<defs>
<linearGradient id="bg" x1="0" y1="0" x2="1" y2="1">
<stop offset="0" stop-color="#F1EBF6"/><stop offset="1" stop-color="#C9B4DC" stop-opacity=".55"/>
</linearGradient>
<linearGradient id="mn" x1="0" y1="0" x2="1" y2="1">
<stop offset="0" stop-color="#7D5798"/><stop offset="1" stop-color="#7D5798" stop-opacity=".72"/>
</linearGradient>
<filter id="gr"><feTurbulence type="fractalNoise" baseFrequency=".9" numOctaves="2" seed="5" stitchTiles="stitch"/><feColorMatrix type="matrix" values="0 0 0 0 0  0 0 0 0 0  0 0 0 0 0  0 0 0 .05 0"/></filter>
</defs>
<rect width="800" height="340" fill="url(#bg)"/>
<circle cx="770" cy="-30" r="190" fill="#7D5798" opacity=".10"/>
<circle cx="30" cy="360" r="150" fill="#7D5798" opacity=".10"/>
<circle cx="640" cy="290" r="70" fill="none" stroke="#7D5798" stroke-width="1.5" stroke-dasharray="3 7" opacity=".5"/>

<g transform="translate(60 30) scale(1.35)">
<path d="M170 30 c-62 0 -104 40 -104 92 c0 30 14 54 36 70 c-5 30 12 52 38 57 l30 2 z" fill="url(#mn)"/>
<path d="M182 30 c62 0 104 40 104 92 c0 30 -14 54 -36 70 c5 30 -12 52 -38 57 l-30 2 z" fill="url(#mn)" opacity=".5"/>
<g stroke="#FAF8F3" stroke-width="7" stroke-linecap="round" fill="none">
<path d="M128 84 q24 14 0 36 q-22 19 8 36"/><path d="M224 84 q-24 14 0 36 q22 19 -8 36"/></g>
</g>
<circle cx="690" cy="180" r="105" fill="#FAF8F3" stroke="#17211D" stroke-width="8"/>
<g stroke="#17211D" stroke-width="9" stroke-linecap="round"><path d="M690 180 V116"/><path d="M690 180 L744 206"/></g>
<circle cx="690" cy="180" r="10" fill="#E8A13D"/>
<rect width="800" height="340" filter="url(#gr)"/>
</svg>